<svg width="87" height="35" viewBox="0 0 87 35" fill="none" xmlns="http://www.w3.org/2000/svg">
<path fill-rule="evenodd" clip-rule="evenodd" d="M77.3243 21.4442C75.5187 21.4442 74.0545 19.9802 74.0545 18.1743C74.0545 16.3684 75.5187 14.9044 77.3243 14.9044C79.1302 14.9044 80.5942 16.3684 80.5942 18.1743C80.5942 19.9802 79.1302 21.4442 77.3243 21.4442M77.3242 8.92603C72.2164 8.92603 68.0757 13.0665 68.0757 18.1744C68.0757 23.2823 72.2164 27.4231 77.3242 27.4231C82.432 27.4231 86.5728 23.2823 86.5728 18.1744C86.5728 13.0665 82.432 8.92603 77.3242 8.92603" fill="#00D2FF"/>
<path fill-rule="evenodd" clip-rule="evenodd" d="M40.874 8.92603V27.4231H47.62V8.92603H47.6051H40.874Z" fill="#00D2FF"/>
<path fill-rule="evenodd" clip-rule="evenodd" d="M58.1744 13.5502L53.5502 8.92603H48.9258V13.5502L53.5502 18.1744L48.9258 22.7986V27.4231H53.5502L58.1744 22.7986L62.7987 27.4231V27.4228V27.4231H67.4229V22.7986L62.7987 18.1744L67.4229 13.5502V8.92603H62.7987L58.1744 13.5502Z" fill="#00D2FF"/>
<path fill-rule="evenodd" clip-rule="evenodd" d="M44.247 7.40273C42.3842 7.40273 40.874 5.89259 40.874 4.02973C40.874 2.16688 42.3842 0.656738 44.247 0.656738C46.1099 0.656738 47.62 2.16688 47.62 4.02973C47.62 5.89259 46.1099 7.40273 44.247 7.40273" fill="#00D2FF"/>
<circle cx="16" cy="18.3333" r="15.5" fill="#033B56" stroke="#00D2FF"/>
<path fill-rule="evenodd" clip-rule="evenodd" d="M16.0417 13.8017L11.4493 9.19043H6.85718V13.8017L11.4493 18.3334L6.85718 22.9445V27.4761H11.4493L16.0417 22.9445L20.5505 27.4761H25.1429V22.9445L20.5505 18.3334L25.1429 13.8017V9.19043H20.5505L16.0417 13.8017Z" fill="#00D2FF"/>
</svg>
